<?xml version="1.0" encoding="UTF-8"?><svg xmlns="http://www.w3.org/2000/svg" xmlns:xlink="http://www.w3.org/1999/xlink" height="439.9" preserveAspectRatio="xMidYMid meet" version="1.0" viewBox="1.5 23.5 500.2 439.9" width="500.2" zoomAndPan="magnify"><g id="change1_1"><path d="m89.69 40.064 336.96 2.3983c20.813 0.1481 56.056 5.474 63.554 34.775 8.661 38.533 11.547 211.95-2.399 238.63-10.281 21.521-19.828 28.698-29.977 34.774-30.065 14.443-170.28 11.991-170.28 11.991l-178.67 100.73 115.12-101.93-145.1 1e-3c-20.36 0-38.979-12.804-45.567-40.772-11.472-50.783-13.705-193.21-2.3984-226.64 10.714-30.538 28.721-54.175 58.758-53.961z" fill="inherit" fill-opacity=".5" fill-rule="evenodd"/></g><g id="change2_1"><path d="m76.745 28.737 336.96 2.3983c20.813 0.1481 56.056 5.474 63.554 34.775 8.661 38.533 11.547 211.95-2.399 238.63-10.281 21.521-19.828 28.698-29.977 34.774-30.065 14.443-170.28 11.991-170.28 11.991l-178.67 100.73 115.12-101.93-145.1 1e-3c-20.36 0-38.979-12.804-45.567-40.772-11.472-50.783-13.705-193.21-2.3984-226.64 10.714-30.538 28.721-54.175 58.758-53.961z" fill="#fff" fill-rule="evenodd" stroke="#000" stroke-linejoin="round" stroke-width="10"/></g></svg>